<svg width="45" height="27" viewBox="0 0 45 27" fill="none" xmlns="http://www.w3.org/2000/svg">
<path d="M8.20804 26V5.552H0.144043V0.799995H22.104V5.552H14.04V26H8.20804Z" fill="white"/>
<path d="M33.3462 26.432C31.3302 26.432 29.3982 26.168 27.5502 25.64C25.7022 25.088 24.2142 24.38 23.0862 23.516L25.0662 19.124C26.1462 19.892 27.4182 20.528 28.8822 21.032C30.3702 21.512 31.8702 21.752 33.3822 21.752C34.5342 21.752 35.4582 21.644 36.1542 21.428C36.8742 21.188 37.4022 20.864 37.7382 20.456C38.0742 20.048 38.2422 19.58 38.2422 19.052C38.2422 18.38 37.9782 17.852 37.4502 17.468C36.9222 17.06 36.2262 16.736 35.3622 16.496C34.4982 16.232 33.5382 15.992 32.4822 15.776C31.4502 15.536 30.4062 15.248 29.3502 14.912C28.3182 14.576 27.3702 14.144 26.5062 13.616C25.6422 13.088 24.9342 12.392 24.3822 11.528C23.8542 10.664 23.5902 9.56 23.5902 8.216C23.5902 6.776 23.9742 5.468 24.7422 4.292C25.5342 3.09199 26.7102 2.14399 28.2702 1.448C29.8542 0.727996 31.8342 0.367996 34.2102 0.367996C35.7942 0.367996 37.3542 0.559996 38.8902 0.943995C40.4262 1.30399 41.7822 1.85599 42.9582 2.6L41.1582 7.028C39.9822 6.356 38.8062 5.864 37.6302 5.552C36.4542 5.216 35.3022 5.048 34.1742 5.048C33.0462 5.048 32.1222 5.18 31.4022 5.444C30.6822 5.708 30.1662 6.056 29.8542 6.48799C29.5422 6.896 29.3862 7.376 29.3862 7.928C29.3862 8.576 29.6502 9.104 30.1782 9.512C30.7062 9.896 31.4022 10.208 32.2662 10.448C33.1302 10.688 34.0782 10.928 35.1102 11.168C36.1662 11.408 37.2102 11.684 38.2422 11.996C39.2982 12.308 40.2582 12.728 41.1222 13.256C41.9862 13.784 42.6822 14.48 43.2102 15.344C43.7622 16.208 44.0382 17.3 44.0382 18.62C44.0382 20.036 43.6422 21.332 42.8502 22.508C42.0582 23.684 40.8702 24.632 39.2862 25.352C37.7262 26.072 35.7462 26.432 33.3462 26.432Z" fill="white"/>
</svg>
